<svg id="图层_1" data-name="图层 1" xmlns="http://www.w3.org/2000/svg" viewBox="0 0 24 24"><title>水印</title><rect x="6" y="6" width="12" height="1" fill="#333"/><rect x="6" y="10" width="12" height="1" fill="#333"/><rect x="6" y="14" width="6" height="1" fill="#333"/><path d="M19.9,16.4c0,.3-.5.9-1.1,1.1a3.3,3.3,0,0,0-2,2,1.5,1.5,0,0,1-1.1,1.1A3.2,3.2,0,0,0,14,22h1.3a1,1,0,0,1,.7-.4,2.7,2.7,0,0,0,1.8-1.9,2.1,2.1,0,0,1,1.3-1.3,2.6,2.6,0,0,0,1.8-1.9V16H20Z" fill="#333"/><path d="M16.9,14.9a3.1,3.1,0,0,0-1.8,1.9,2.1,2.1,0,0,1-1.1,1,3,3,0,0,0-1.9,1.9V20h1.1a1.8,1.8,0,0,1,1.2-1.2A2.6,2.6,0,0,0,16,17a2.2,2.2,0,0,1,1.3-1.2A2.6,2.6,0,0,0,19,14H18A2.5,2.5,0,0,1,16.9,14.9Z" fill="#333"/><path d="M5,21a.9.9,0,0,1-1-1V4A.9.9,0,0,1,5,3H19a.9.9,0,0,1,1,1v9h1V4a2,2,0,0,0-2-2H5A2,2,0,0,0,3,4V20a2,2,0,0,0,2,2h7V21Z" fill="#333"/></svg>