<svg id="图层_1" data-name="图层 1" xmlns="http://www.w3.org/2000/svg" viewBox="0 0 160 160"><path d="M129.45,84.39l-2.13-2.13,11.17-11.17a24.34,24.34,0,0,0,0-34.42h0l-3.34-3.33,9.9-9.9a6,6,0,0,0-7.77-9.15,6.9,6.9,0,0,0-.71.72l-9.9,9.9L124.75,23a24.35,24.35,0,0,0-34.42,0L79.15,34.09l-3.54-3.54a5.93,5.93,0,1,0-8.39,8.39L79.29,51,63,67.27a6,6,0,0,0,8.48,8.49l16.3-16.27,12.73,12.73L84.24,88.49A6,6,0,0,0,92.73,97L109,80.71l12.07,12.07a5.93,5.93,0,1,0,8.39-8.39h0ZM118.52,79,82.4,42.89,95,30.31a18.26,18.26,0,0,1,25.82,0l10.31,10.3a18.26,18.26,0,0,1,0,25.82Z" fill="#ccc"/><path d="M92.78,121.06,38.94,67.22a5.93,5.93,0,1,0-8.39,8.39h0l3.54,3.54L22.92,90.33a24.35,24.35,0,0,0,0,34.42l1.92,1.92-9.9,9.9a6,6,0,0,0,8.48,8.48l9.9-9.9,3.33,3.34a24.34,24.34,0,0,0,34.42,0h0l11.17-11.17,2.13,2.13a5.93,5.93,0,0,0,8.39-8.39h0ZM66.43,131.11a18.26,18.26,0,0,1-25.82,0L30.31,120.8a18.26,18.26,0,0,1,0-25.82L42.89,82.4,79,118.52Z" fill="#ccc"/><path d="M121.06,92.78,67.22,38.94a5.93,5.93,0,1,1,8.39-8.39l3.54,3.54L90.33,22.92a24.35,24.35,0,0,1,34.42,0l1.92,1.92,9.9-9.9a6,6,0,0,1,8.78,8.18l-.3.3-9.9,9.9,3.34,3.33a24.34,24.34,0,0,1,0,34.42h0L127.32,82.26l2.13,2.13a5.93,5.93,0,1,1-8.39,8.39Zm10.05-26.35a18.26,18.26,0,0,0,0-25.82L120.8,30.31a18.26,18.26,0,0,0-25.82,0L82.4,42.89,118.52,79Z" fill="#ccc"/></svg>