<svg id="图层_1" data-name="图层 1" xmlns="http://www.w3.org/2000/svg" viewBox="0 0 24 24"><path d="M2.54,21.31a.58.58,0,0,1-.41-.17.48.48,0,0,1,.06-.71L19.11,6.81a.57.57,0,0,1,.76.05.48.48,0,0,1-.06.71L2.89,21.19A.59.59,0,0,1,2.54,21.31Z" fill="#e0e0e0"/><polygon points="10 8.23 7.91 7.94 6.97 6 6.08 7.96 4 8.31 5.53 9.84 5.2 12 7.03 10.96 8.89 11.95 8.51 9.8 10 8.23" fill="#e0e0e0"/><polygon points="17 3.48 15.61 3.29 14.98 2 14.39 3.31 13 3.54 14.02 4.56 13.8 6 15.02 5.3 16.26 5.97 16 4.53 17 3.48" fill="#e0e0e0"/><polygon points="22 11.48 20.61 11.29 19.98 10 19.39 11.3 18 11.54 19.02 12.56 18.8 14 20.02 13.3 21.26 13.97 21 12.53 22 11.48" fill="#e0e0e0"/></svg>