<svg id="图层_1" data-name="图层 1" xmlns="http://www.w3.org/2000/svg" viewBox="0 0 24 24"><path d="M3,4.5A1.5,1.5,0,0,1,4.5,3H7V2H4.5A2.5,2.5,0,0,0,2,4.5V7H3Z" fill="#e0e0e0"/><path d="M19.5,3A1.5,1.5,0,0,1,21,4.5V7h1V4.5A2.5,2.5,0,0,0,19.5,2H17V3Z" fill="#e0e0e0"/><path d="M4.5,21A1.5,1.5,0,0,1,3,19.5V17H2v2.5A2.5,2.5,0,0,0,4.5,22H7V21Z" fill="#e0e0e0"/><path d="M21,19.5A1.5,1.5,0,0,1,19.5,21H17v1h2.5A2.5,2.5,0,0,0,22,19.5V17H21Z" fill="#e0e0e0"/><rect x="7.5" y="12.5" width="9" height="2" transform="translate(25.5 1.5) rotate(90)" fill="#e0e0e0"/><rect x="7" y="7" width="10" height="2" fill="#e0e0e0"/></svg>